<svg width="500" height="500" viewBox="0 0 500 500" fill="none" xmlns="http://www.w3.org/2000/svg">
<g filter="url(#filter0_d_3_59)">
<path fill-rule="evenodd" clip-rule="evenodd" d="M228.694 295.937C228.379 295.922 228.062 295.914 227.742 295.914C225.258 295.914 222.922 296.359 220.734 297.25C218.484 298.156 216.5 299.469 214.781 301.188C213.094 302.797 211.766 304.734 210.797 307C209.859 309.219 209.391 311.523 209.391 313.914C209.391 316.305 209.859 318.609 210.797 320.828C211.766 323.094 213.094 325.031 214.781 326.641C216.453 328.312 218.438 329.609 220.734 330.531C223.062 331.453 225.398 331.914 227.742 331.914C230.055 331.914 232.391 331.453 234.75 330.531C237 329.625 239 328.328 240.75 326.641C242.516 324.906 243.844 322.984 244.734 320.875C245.625 318.719 246.07 316.398 246.07 313.914C246.07 311.461 245.625 309.156 244.734 307C244.103 305.524 243.278 304.15 242.258 302.879C236.965 301.556 232.297 299.127 228.694 295.937ZM267 300.674V331H275.766V317.57L283.641 331H294.211L284.859 317.172C287.375 316.656 289.273 315.555 290.555 313.867C291.867 312.18 292.523 310.016 292.523 307.375C292.523 305.594 292.188 304 291.516 302.594C290.875 301.125 289.93 299.922 288.68 298.984C287.539 298.141 286.242 297.547 284.789 297.203C283.945 297.016 282.867 296.883 281.555 296.805C280.258 296.727 278.664 296.688 276.773 296.688H273.421C271.523 298.231 269.364 299.574 267 300.674ZM190.523 308.242V298.023C189.102 297.336 187.625 296.789 186.094 296.383C184.547 296.039 183.062 295.867 181.641 295.867C179.156 295.867 176.898 296.281 174.867 297.109C172.82 297.922 170.977 299.172 169.336 300.859C168.383 301.859 167.602 302.828 166.992 303.766C166.398 304.688 165.906 305.672 165.516 306.719C164.641 308.891 164.203 311.273 164.203 313.867C164.203 317.102 164.875 320.047 166.219 322.703C167.562 325.266 169.516 327.422 172.078 329.172C173.359 330.078 174.812 330.75 176.438 331.188C178.062 331.641 179.797 331.867 181.641 331.867C183.094 331.867 184.578 331.688 186.094 331.328C187.312 331.062 188.789 330.523 190.523 329.711V319.469C189.18 320.953 187.914 322 186.727 322.609C185.383 323.281 184.008 323.617 182.602 323.617C179.977 323.617 177.812 322.719 176.109 320.922C174.422 319.094 173.578 316.805 173.578 314.055C173.578 313.133 173.664 312.227 173.836 311.336C174.023 310.43 174.297 309.625 174.656 308.922C175.016 308.203 175.484 307.516 176.062 306.859C177.75 305.031 179.93 304.117 182.602 304.117C184.023 304.117 185.398 304.438 186.727 305.078C187.914 305.734 189.18 306.789 190.523 308.242ZM234.211 321.109C232.477 323.031 230.32 323.992 227.742 323.992C225.117 323.992 222.953 323.047 221.25 321.156C219.594 319.312 218.766 316.898 218.766 313.914C218.766 311.039 219.609 308.641 221.297 306.719C222.984 304.797 225.133 303.836 227.742 303.836C230.289 303.836 232.43 304.797 234.164 306.719C235.867 308.656 236.719 311.055 236.719 313.914C236.719 315.383 236.516 316.711 236.109 317.898C235.703 319.086 235.07 320.156 234.211 321.109ZM277.5 312.906H275.766V303.883H277.641C279.688 303.883 281.148 304.25 282.023 304.984C282.883 305.703 283.312 306.922 283.312 308.641C283.312 310.062 282.852 311.148 281.93 311.898C281.023 312.57 279.547 312.906 277.5 312.906ZM312.844 296.688V331H333.867V323.312H321.961V317.523H333.188V310.164H321.961V304.211H333.867V296.688H312.844Z" fill="#404040"/>
<g clip-path="url(#clip0_3_59)">
<path d="M231.46 210.956C231.656 211.567 231.817 212.194 231.937 212.821C232.091 213.63 232.8 214.193 233.594 214.193C233.7 214.193 233.807 214.183 233.914 214.163C234.83 213.987 235.431 213.102 235.256 212.186C235.109 211.423 234.914 210.661 234.675 209.92C234.389 209.032 233.439 208.543 232.549 208.83C231.661 209.117 231.173 210.069 231.46 210.956Z" fill="black"/>
<path d="M214.246 197.92C214.244 198.853 214.999 199.611 215.932 199.612C220.81 199.621 225.587 201.956 228.712 205.86C229.046 206.276 229.537 206.493 230.033 206.493C230.403 206.493 230.775 206.372 231.087 206.123C231.816 205.539 231.933 204.476 231.35 203.748C227.592 199.053 221.83 196.243 215.938 196.234C215.937 196.234 215.936 196.234 215.935 196.234C215.003 196.234 214.247 196.988 214.246 197.92Z" fill="black"/>
<path d="M221.567 254.905H213.977C213.044 254.905 212.287 255.662 212.287 256.595C212.287 257.528 213.044 258.284 213.977 258.284H221.567C222.5 258.284 223.257 257.528 223.257 256.595C223.257 255.662 222.5 254.905 221.567 254.905Z" fill="black"/>
<path d="M333.958 267.438L328.777 262.257C325.462 258.942 320.296 258.581 316.576 261.168L313.191 257.784C313.7 257.851 314.044 257.896 314.062 257.896C314.429 257.896 314.788 257.777 315.084 257.552C315.441 257.281 315.675 256.879 315.736 256.435L319.938 225.637C320.065 224.713 319.418 223.861 318.493 223.735L311.231 222.742C306.585 222.108 302.254 224.95 300.858 229.261L284.463 227.025C283.302 226.866 282.143 226.82 280.998 226.876V219.408C280.998 215.851 279.613 212.511 277.102 210.004C274.597 207.494 271.258 206.11 267.7 206.11C264.149 206.11 260.81 207.494 258.298 210.006C255.787 212.519 254.405 215.858 254.408 219.408V228.427H247.874L241.173 221.725C241.663 219.73 241.928 217.646 241.928 215.501C241.928 201.099 230.211 189.381 215.808 189.381C202.684 189.381 191.794 199.112 189.963 211.736L177.931 223.769C175.688 226.011 174.453 228.993 174.453 232.166C174.453 235.337 175.688 238.32 177.931 240.563L205.215 267.846V270.673C205.215 280.918 213.549 289.252 223.793 289.252H226.446L227.78 290.585C234.295 297.1 242.849 300.356 251.406 300.356C259.961 300.356 268.519 297.098 275.032 290.585L291.738 273.939L309.59 291.806C309.92 292.136 310.352 292.301 310.785 292.301C311.217 292.301 311.649 292.136 311.979 291.806L333.958 269.827C334.618 269.168 334.618 268.098 333.958 267.438ZM293.428 270.851V258.063C296.08 257.704 298.639 256.51 300.672 254.476C301.428 253.72 302.073 252.884 302.609 251.98L309.913 259.283L295.887 273.31L293.428 270.851ZM273.759 254.311L266.403 246.955L266.892 243.38C266.894 243.364 266.897 243.349 266.9 243.334C267.886 243.817 268.934 244.172 270.035 244.388C270.859 244.55 271.685 244.63 272.505 244.63C274.478 244.63 276.412 244.16 278.183 243.263L281.235 247.279C280.303 247.922 279.419 248.65 278.602 249.468L273.759 254.311ZM281.611 230.235C281.829 231.4 281.824 232.579 281.594 233.75C281.115 236.185 279.717 238.287 277.657 239.671C275.597 241.054 273.123 241.553 270.687 241.074C269.643 240.868 268.665 240.496 267.768 239.968C268.769 237.356 270.474 235.065 272.756 233.33C275.344 231.363 278.422 230.299 281.611 230.235ZM291.738 244.026C289.103 244.026 286.553 244.576 284.213 245.614L280.976 241.355C282.999 239.534 284.375 237.12 284.909 234.402C285.164 233.109 285.212 231.808 285.065 230.517L294.409 231.791L292.739 244.055C292.407 244.037 292.074 244.026 291.738 244.026ZM291.738 247.405C294.696 247.405 297.524 248.248 299.952 249.814C299.515 250.649 298.959 251.411 298.283 252.087C294.661 255.708 288.768 255.709 285.146 252.087C284.473 251.414 283.921 250.659 283.489 249.837C285.925 248.256 288.766 247.405 291.738 247.405ZM312.617 254.304L309.945 253.939L313.694 226.489L316.363 226.853L312.617 254.304ZM301.927 232.816C302.856 232.938 303.703 232.295 303.829 231.371C304.269 228.146 307.142 225.846 310.343 226.053L306.872 251.465L304.875 249.468C302.415 247.007 299.385 245.325 296.083 244.538L297.757 232.247L301.927 232.816ZM270.712 230.641C268.533 232.297 266.785 234.368 265.539 236.715L257.787 228.963C257.787 228.963 257.791 219.143 257.797 219.012H277.61C277.615 219.144 277.619 227.361 277.619 227.361C275.146 227.953 272.798 229.055 270.712 230.641ZM267.701 209.49C270.354 209.49 272.844 210.52 274.713 212.394C275.657 213.335 276.387 214.435 276.879 215.633H258.526C259.018 214.436 259.746 213.337 260.689 212.395C262.561 210.521 265.052 209.49 267.701 209.49ZM255.851 231.805C255.851 231.805 264.08 240.017 264.163 240.074C263.887 240.998 263.678 241.949 263.545 242.923L263.404 243.956L251.253 231.806H255.851V231.805ZM271.37 256.7L266.169 261.901L236.14 231.873C237.728 229.907 239.034 227.706 240.002 225.332L271.37 256.7ZM238.55 215.501C238.55 216.287 238.51 217.065 238.432 217.831C232.891 223.215 225.407 225.491 218.955 223.818C218.831 221.7 217.957 219.724 216.444 218.212C214.809 216.576 212.635 215.676 210.323 215.676C209.953 215.676 209.587 215.708 209.225 215.753C206.044 208.854 208.135 199.859 214.549 193.445C214.787 193.208 215.019 192.987 215.249 192.775C215.436 192.77 215.622 192.76 215.81 192.76C228.348 192.76 238.55 202.962 238.55 215.501ZM210.323 219.055C211.733 219.055 213.058 219.604 214.055 220.6C215.052 221.597 215.601 222.923 215.601 224.333C215.601 225.742 215.052 227.068 214.055 228.064C213.058 229.061 211.733 229.61 210.323 229.61C208.914 229.61 207.588 229.061 206.591 228.064C205.595 227.068 205.045 225.742 205.045 224.333C205.045 222.923 205.595 221.597 206.591 220.6C207.588 219.604 208.914 219.055 210.323 219.055ZM209.969 193.524C204.401 200.578 202.838 209.589 206.005 216.837C205.356 217.212 204.747 217.667 204.202 218.212C202.567 219.847 201.667 222.021 201.667 224.333C201.667 226.645 202.568 228.819 204.202 230.453C205.837 232.089 208.011 232.989 210.323 232.989C212.636 232.989 214.809 232.089 216.444 230.454C217.381 229.517 218.067 228.399 218.491 227.183C220.042 227.552 221.637 227.735 223.248 227.735C228.021 227.735 232.926 226.15 237.208 223.194C234.048 231.959 225.65 238.243 215.81 238.243C203.27 238.243 193.068 228.042 193.068 215.502C193.068 204.981 200.251 196.109 209.969 193.524ZM205.215 246.394L182.649 223.829L189.721 216.758C190.201 226.851 196.44 235.457 205.214 239.368L205.215 246.394ZM187.247 245.1L193.195 239.152L195.859 241.816L189.911 247.764L187.247 245.1ZM177.832 232.166C177.832 229.924 178.697 227.818 180.264 226.22L190.806 236.763L184.858 242.711L180.321 238.174C178.716 236.569 177.832 234.435 177.832 232.166ZM192.3 250.153L198.248 244.205L205.215 251.172V263.068L192.3 250.153ZM208.827 273.306C212.086 271.817 215.948 272.472 218.541 275.064C221.277 277.8 221.822 282.071 219.994 285.392C214.277 283.915 209.858 279.186 208.827 273.306ZM223.518 285.867C225.106 282.126 224.7 277.84 222.399 274.457L230.818 266.037H240.828C240.961 266.037 241.092 266.042 241.224 266.048V285.864C241.093 285.868 223.61 285.868 223.518 285.867ZM250.746 275.956C250.746 280.089 248.205 283.637 244.603 285.125V266.785C248.204 268.273 250.746 271.823 250.746 275.956ZM272.643 288.197C261.296 299.543 243.054 299.895 231.28 289.252H240.828C248.16 289.252 254.125 283.287 254.125 275.956C254.125 268.624 248.16 262.659 240.828 262.659H231.808V243.924C231.808 242.991 231.052 242.235 230.119 242.235C229.186 242.235 228.429 242.991 228.429 243.924V263.649L220.131 271.947C216.889 269.23 212.522 268.449 208.594 269.771V240.6C210.887 241.26 213.306 241.621 215.809 241.621C222.803 241.621 229.158 238.853 233.851 234.362L263.779 264.29L259.686 268.383C259.026 269.042 259.026 270.112 259.686 270.771C260.346 271.432 261.416 271.432 262.075 270.771L280.836 252.011C281.368 252.9 282.007 253.726 282.756 254.476C284.802 256.522 287.38 257.717 290.049 258.068V270.851L272.643 288.197ZM298.276 275.698L312.302 261.672L315.276 264.646C315.936 265.306 317.006 265.306 317.665 264.646C319.966 262.346 323.644 262.252 326.065 264.354L306.49 283.928L298.276 275.698ZM310.785 288.223L308.879 286.317L328.469 266.727L330.375 268.633L310.785 288.223Z" fill="black"/>
</g>
</g>
<defs>
<filter id="filter0_d_3_59" x="-4" y="0" width="508" height="508" filterUnits="userSpaceOnUse" color-interpolation-filters="sRGB">
<feFlood flood-opacity="0" result="BackgroundImageFix"/>
<feColorMatrix in="SourceAlpha" type="matrix" values="0 0 0 0 0 0 0 0 0 0 0 0 0 0 0 0 0 0 127 0" result="hardAlpha"/>
<feOffset dy="4"/>
<feGaussianBlur stdDeviation="2"/>
<feComposite in2="hardAlpha" operator="out"/>
<feColorMatrix type="matrix" values="0 0 0 0 0 0 0 0 0 0 0 0 0 0 0 0 0 0 0.25 0"/>
<feBlend mode="normal" in2="BackgroundImageFix" result="effect1_dropShadow_3_59"/>
<feBlend mode="normal" in="SourceGraphic" in2="effect1_dropShadow_3_59" result="shape"/>
</filter>
<clipPath id="clip0_3_59">
<rect width="160" height="160" fill="white" transform="translate(171 156)"/>
</clipPath>
</defs>
</svg>
