<svg width="500" height="500" viewBox="0 0 500 500" fill="none" xmlns="http://www.w3.org/2000/svg">
<g filter="url(#filter0_d_4_2)">
<path fill-rule="evenodd" clip-rule="evenodd" d="M232.035 285.417C214.956 287.457 198.309 292.423 182.835 300.141C162.189 310.438 144.184 325.356 130.213 343.741C129.044 345.28 129.343 347.475 130.882 348.645C132.421 349.815 134.617 349.515 135.787 347.976C149.108 330.446 166.275 316.222 185.959 306.405C205.643 296.588 227.316 291.44 249.302 291.359C271.289 291.279 292.999 296.267 312.754 305.94C332.509 315.612 349.779 329.71 363.229 347.142C364.41 348.672 366.608 348.956 368.138 347.775C369.668 346.594 369.952 344.396 368.771 342.866C354.666 324.584 336.553 309.798 315.832 299.653C300.27 292.033 283.55 287.185 266.42 285.279C261.02 286.944 255.145 287.858 249 287.858C243.028 287.858 237.31 286.995 232.035 285.417Z" fill="#404040"/>
<path d="M225.665 179.911C225.892 180.616 226.077 181.341 226.216 182.064C226.394 182.999 227.212 183.649 228.129 183.649C228.251 183.649 228.375 183.637 228.498 183.614C229.557 183.411 230.25 182.389 230.048 181.331C229.879 180.451 229.654 179.57 229.378 178.714C229.047 177.689 227.95 177.125 226.923 177.457C225.897 177.787 225.334 178.886 225.665 179.911Z" fill="black"/>
<path d="M205.789 164.859C205.787 165.936 206.659 166.811 207.736 166.813C213.368 166.823 218.885 169.519 222.493 174.026C222.878 174.507 223.445 174.758 224.017 174.758C224.444 174.758 224.875 174.618 225.235 174.33C226.076 173.657 226.211 172.429 225.538 171.588C221.199 166.167 214.546 162.923 207.743 162.912C207.741 162.912 207.74 162.912 207.739 162.912C206.664 162.912 205.791 163.783 205.789 164.859Z" fill="black"/>
<path d="M214.243 230.657H205.478C204.401 230.657 203.528 231.53 203.528 232.607C203.528 233.684 204.401 234.558 205.478 234.558H214.243C215.32 234.558 216.193 233.684 216.193 232.607C216.193 231.53 215.32 230.657 214.243 230.657Z" fill="black"/>
<path d="M344.013 245.128L338.031 239.145C334.203 235.317 328.238 234.9 323.943 237.888L320.035 233.98C320.623 234.058 321.019 234.11 321.04 234.11C321.464 234.11 321.879 233.972 322.22 233.713C322.632 233.399 322.903 232.935 322.973 232.423L327.825 196.862C327.971 195.795 327.225 194.812 326.157 194.666L317.772 193.519C312.407 192.787 307.406 196.069 305.795 201.046L286.864 198.464C285.524 198.281 284.186 198.228 282.863 198.293V189.67C282.863 185.563 281.265 181.706 278.364 178.812C275.472 175.913 271.617 174.316 267.509 174.316C263.409 174.316 259.554 175.913 256.654 178.814C253.754 181.715 252.158 185.571 252.162 189.67V200.083H244.617L236.88 192.346C237.446 190.041 237.752 187.636 237.752 185.159C237.752 168.529 224.223 155 207.593 155C192.439 155 179.865 166.235 177.752 180.812L163.859 194.705C161.269 197.294 159.843 200.738 159.843 204.4C159.843 208.063 161.269 211.506 163.859 214.096L195.361 245.598V248.862C195.361 260.691 204.985 270.314 216.813 270.314H219.876L221.416 271.854C228.938 279.376 238.815 283.136 248.695 283.136C258.573 283.136 268.455 279.374 275.975 271.854L295.265 252.634L315.877 273.264C316.258 273.645 316.757 273.835 317.256 273.835C317.755 273.835 318.255 273.645 318.635 273.264L344.013 247.886C344.775 247.124 344.775 245.889 344.013 245.128ZM297.215 249.068V234.302C300.277 233.888 303.232 232.509 305.579 230.161C306.452 229.288 307.197 228.322 307.817 227.279L316.25 235.712L300.054 251.907L297.215 249.068ZM274.505 229.97L266.012 221.477L266.576 217.348C266.579 217.33 266.582 217.313 266.585 217.296C267.724 217.854 268.933 218.263 270.206 218.513C271.156 218.7 272.11 218.792 273.057 218.792C275.335 218.792 277.569 218.25 279.613 217.214L283.138 221.851C282.061 222.593 281.041 223.434 280.097 224.379L274.505 229.97ZM283.571 202.171C283.823 203.516 283.817 204.878 283.552 206.23C282.999 209.041 281.385 211.468 279.006 213.066C276.627 214.663 273.77 215.24 270.958 214.686C269.753 214.449 268.623 214.019 267.588 213.409C268.743 210.393 270.712 207.749 273.347 205.745C276.335 203.473 279.889 202.246 283.571 202.171ZM295.265 218.095C292.221 218.095 289.277 218.73 286.576 219.928L282.839 215.011C285.174 212.908 286.763 210.121 287.38 206.983C287.673 205.489 287.729 203.987 287.559 202.497L298.348 203.968L296.42 218.128C296.037 218.107 295.652 218.095 295.265 218.095ZM295.265 221.996C298.68 221.996 301.945 222.969 304.748 224.778C304.244 225.742 303.602 226.622 302.821 227.402C298.639 231.584 291.835 231.584 287.653 227.402C286.876 226.625 286.238 225.754 285.739 224.804C288.552 222.979 291.832 221.996 295.265 221.996ZM319.372 229.962L316.287 229.54L320.615 197.845L323.697 198.267L319.372 229.962ZM307.029 205.152C308.102 205.292 309.08 204.55 309.225 203.483C309.733 199.759 313.051 197.104 316.747 197.343L312.739 226.684L310.433 224.378C307.592 221.537 304.094 219.595 300.282 218.685L302.214 204.495L307.029 205.152ZM270.986 202.64C268.471 204.552 266.452 206.943 265.014 209.654L256.063 200.703C256.063 200.703 256.068 189.364 256.074 189.212H278.951C278.957 189.365 278.962 198.853 278.962 198.853C276.106 199.537 273.395 200.808 270.986 202.64ZM267.51 178.218C270.574 178.218 273.448 179.407 275.606 181.571C276.696 182.658 277.539 183.928 278.107 185.311H256.917C257.484 183.93 258.326 182.661 259.414 181.572C261.576 179.409 264.451 178.218 267.51 178.218ZM253.828 203.984C253.828 203.984 263.33 213.466 263.425 213.532C263.107 214.599 262.865 215.697 262.712 216.821L262.549 218.014L248.519 203.985H253.828V203.984ZM271.747 232.729L265.741 238.734L231.069 204.063C232.902 201.792 234.41 199.251 235.528 196.51L271.747 232.729ZM233.852 185.159C233.852 186.067 233.805 186.964 233.715 187.849C227.317 194.066 218.676 196.694 211.226 194.762C211.083 192.317 210.074 190.035 208.327 188.289C206.439 186.4 203.929 185.361 201.26 185.361C200.832 185.361 200.41 185.397 199.992 185.45C196.319 177.484 198.733 167.098 206.139 159.692C206.413 159.418 206.682 159.163 206.947 158.918C207.163 158.913 207.377 158.902 207.594 158.902C222.072 158.902 233.852 170.681 233.852 185.159ZM201.26 189.262C202.887 189.262 204.418 189.896 205.569 191.047C206.72 192.198 207.354 193.728 207.354 195.356C207.354 196.984 206.72 198.514 205.569 199.665C204.418 200.816 202.887 201.45 201.26 201.45C199.632 201.45 198.101 200.816 196.951 199.664C195.8 198.514 195.166 196.984 195.166 195.356C195.166 193.728 195.8 192.198 196.951 191.047C198.101 189.896 199.632 189.262 201.26 189.262ZM200.851 159.783C194.422 167.928 192.616 178.332 196.274 186.701C195.524 187.135 194.821 187.66 194.193 188.289C192.304 190.177 191.265 192.687 191.265 195.357C191.265 198.026 192.305 200.536 194.193 202.424C196.08 204.312 198.59 205.351 201.26 205.351C203.93 205.351 206.439 204.312 208.327 202.424C209.409 201.342 210.201 200.052 210.691 198.648C212.482 199.073 214.323 199.285 216.183 199.285C221.694 199.285 227.358 197.454 232.302 194.041C228.653 204.162 218.957 211.418 207.594 211.418C193.116 211.418 181.336 199.639 181.336 185.159C181.336 173.012 189.63 162.768 200.851 159.783ZM195.361 220.829L169.307 194.774L177.471 186.61C178.026 198.264 185.229 208.201 195.361 212.716L195.361 220.829ZM174.615 219.335L181.483 212.467L184.559 215.543L177.691 222.411L174.615 219.335ZM163.744 204.4C163.744 201.812 164.743 199.381 166.552 197.536L178.725 209.709L171.857 216.577L166.618 211.338C164.765 209.485 163.744 207.021 163.744 204.4ZM180.449 225.169L187.317 218.301L195.361 226.345V240.081L180.449 225.169ZM199.532 251.903C203.295 250.183 207.754 250.939 210.748 253.932C213.908 257.092 214.536 262.024 212.426 265.858C205.825 264.153 200.723 258.692 199.532 251.903ZM216.495 266.405C218.329 262.087 217.86 257.138 215.203 253.231L224.924 243.51H236.482C236.635 243.51 236.787 243.516 236.939 243.522V266.402C236.787 266.407 216.601 266.407 216.495 266.405ZM247.934 254.962C247.934 259.734 244.999 263.832 240.84 265.55V244.373C244.999 246.092 247.934 250.19 247.934 254.962ZM273.216 269.096C260.114 282.196 239.052 282.603 225.457 270.314H236.482C244.948 270.314 251.835 263.427 251.835 254.962C251.835 246.496 244.948 239.609 236.482 239.609H226.067V217.977C226.067 216.9 225.194 216.026 224.116 216.026C223.039 216.026 222.166 216.9 222.166 217.977V240.752L212.585 250.333C208.84 247.197 203.799 246.295 199.263 247.821V214.139C201.911 214.901 204.704 215.318 207.594 215.318C215.669 215.318 223.007 212.122 228.426 206.936L262.982 241.492L258.256 246.218C257.494 246.98 257.494 248.215 258.256 248.976C259.018 249.738 260.254 249.738 261.015 248.976L282.677 227.314C283.291 228.341 284.028 229.295 284.894 230.16C287.256 232.523 290.233 233.903 293.314 234.309V249.068L273.216 269.096ZM302.813 254.664L319.008 238.47L322.442 241.904C323.204 242.666 324.44 242.666 325.2 241.904C327.858 239.248 332.104 239.14 334.899 241.566L312.297 264.167L302.813 254.664ZM317.256 269.126L315.055 266.925L337.675 244.306L339.876 246.507L317.256 269.126Z" fill="black"/>
</g>
<defs>
<filter id="filter0_d_4_2" x="-4" y="0" width="508" height="508" filterUnits="userSpaceOnUse" color-interpolation-filters="sRGB">
<feFlood flood-opacity="0" result="BackgroundImageFix"/>
<feColorMatrix in="SourceAlpha" type="matrix" values="0 0 0 0 0 0 0 0 0 0 0 0 0 0 0 0 0 0 127 0" result="hardAlpha"/>
<feOffset dy="4"/>
<feGaussianBlur stdDeviation="2"/>
<feComposite in2="hardAlpha" operator="out"/>
<feColorMatrix type="matrix" values="0 0 0 0 0 0 0 0 0 0 0 0 0 0 0 0 0 0 0.25 0"/>
<feBlend mode="normal" in2="BackgroundImageFix" result="effect1_dropShadow_4_2"/>
<feBlend mode="normal" in="SourceGraphic" in2="effect1_dropShadow_4_2" result="shape"/>
</filter>
</defs>
</svg>
