<svg width="508" height="508" viewBox="0 0 508 508" fill="none" xmlns="http://www.w3.org/2000/svg">
<g filter="url(#filter0_d_3_59)">
<rect width="500" height="500" transform="translate(4)" fill="white"/>
<path d="M194.523 298.023V308.242C193.18 306.789 191.914 305.734 190.727 305.078C189.398 304.438 188.023 304.117 186.602 304.117C183.93 304.117 181.75 305.031 180.062 306.859C179.484 307.516 179.016 308.203 178.656 308.922C178.297 309.625 178.023 310.43 177.836 311.336C177.664 312.227 177.578 313.133 177.578 314.055C177.578 316.805 178.422 319.094 180.109 320.922C181.812 322.719 183.977 323.617 186.602 323.617C188.008 323.617 189.383 323.281 190.727 322.609C191.914 322 193.18 320.953 194.523 319.469V329.711C192.789 330.523 191.312 331.062 190.094 331.328C188.578 331.688 187.094 331.867 185.641 331.867C183.797 331.867 182.062 331.641 180.438 331.188C178.812 330.75 177.359 330.078 176.078 329.172C173.516 327.422 171.562 325.266 170.219 322.703C168.875 320.047 168.203 317.102 168.203 313.867C168.203 311.273 168.641 308.891 169.516 306.719C169.906 305.672 170.398 304.688 170.992 303.766C171.602 302.828 172.383 301.859 173.336 300.859C174.977 299.172 176.82 297.922 178.867 297.109C180.898 296.281 183.156 295.867 185.641 295.867C187.062 295.867 188.547 296.039 190.094 296.383C191.625 296.789 193.102 297.336 194.523 298.023ZM250.07 313.914C250.07 316.398 249.625 318.719 248.734 320.875C247.844 322.984 246.516 324.906 244.75 326.641C243 328.328 241 329.625 238.75 330.531C236.391 331.453 234.055 331.914 231.742 331.914C229.398 331.914 227.062 331.453 224.734 330.531C222.438 329.609 220.453 328.312 218.781 326.641C217.094 325.031 215.766 323.094 214.797 320.828C213.859 318.609 213.391 316.305 213.391 313.914C213.391 311.523 213.859 309.219 214.797 307C215.766 304.734 217.094 302.797 218.781 301.188C220.5 299.469 222.484 298.156 224.734 297.25C226.922 296.359 229.258 295.914 231.742 295.914C234.227 295.914 236.578 296.367 238.797 297.273C241.016 298.164 242.992 299.469 244.727 301.188C246.477 302.906 247.812 304.844 248.734 307C249.625 309.156 250.07 311.461 250.07 313.914ZM231.742 323.992C234.32 323.992 236.477 323.031 238.211 321.109C239.07 320.156 239.703 319.086 240.109 317.898C240.516 316.711 240.719 315.383 240.719 313.914C240.719 311.055 239.867 308.656 238.164 306.719C236.43 304.797 234.289 303.836 231.742 303.836C229.133 303.836 226.984 304.797 225.297 306.719C223.609 308.641 222.766 311.039 222.766 313.914C222.766 316.898 223.594 319.312 225.25 321.156C226.953 323.047 229.117 323.992 231.742 323.992ZM271 331V296.688H280.773C282.664 296.688 284.258 296.727 285.555 296.805C286.867 296.883 287.945 297.016 288.789 297.203C290.242 297.547 291.539 298.141 292.68 298.984C293.93 299.922 294.875 301.125 295.516 302.594C296.188 304 296.523 305.594 296.523 307.375C296.523 310.016 295.867 312.18 294.555 313.867C293.273 315.555 291.375 316.656 288.859 317.172L298.211 331H287.641L279.766 317.57V331H271ZM279.766 312.906H281.5C283.547 312.906 285.023 312.57 285.93 311.898C286.852 311.148 287.312 310.062 287.312 308.641C287.312 306.922 286.883 305.703 286.023 304.984C285.148 304.25 283.688 303.883 281.641 303.883H279.766V312.906ZM316.844 331V296.688H337.867V304.211H325.961V310.164H337.188V317.523H325.961V323.312H337.867V331H316.844Z" fill="#404040"/>
<ellipse cx="255.5" cy="280" rx="30.5" ry="24" fill="white"/>
<g clip-path="url(#clip0_3_59)">
<path d="M235.46 212.956C235.656 213.567 235.817 214.194 235.937 214.821C236.091 215.63 236.8 216.193 237.594 216.193C237.7 216.193 237.807 216.183 237.914 216.163C238.83 215.987 239.431 215.102 239.256 214.186C239.109 213.423 238.914 212.661 238.675 211.92C238.389 211.032 237.439 210.543 236.549 210.83C235.661 211.117 235.173 212.069 235.46 212.956Z" fill="black"/>
<path d="M218.246 199.92C218.244 200.853 218.999 201.611 219.932 201.612C224.81 201.621 229.587 203.956 232.712 207.86C233.046 208.276 233.537 208.493 234.033 208.493C234.403 208.493 234.775 208.372 235.087 208.123C235.816 207.539 235.933 206.476 235.35 205.748C231.592 201.053 225.83 198.243 219.938 198.234C219.937 198.234 219.936 198.234 219.935 198.234C219.003 198.234 218.247 198.988 218.246 199.92Z" fill="black"/>
<path d="M225.567 256.905H217.977C217.044 256.905 216.287 257.662 216.287 258.595C216.287 259.528 217.044 260.284 217.977 260.284H225.567C226.5 260.284 227.257 259.528 227.257 258.595C227.257 257.662 226.5 256.905 225.567 256.905Z" fill="black"/>
<path d="M337.958 269.438L332.777 264.257C329.462 260.942 324.296 260.581 320.576 263.168L317.191 259.784C317.7 259.851 318.044 259.896 318.062 259.896C318.429 259.896 318.788 259.777 319.084 259.552C319.441 259.281 319.675 258.879 319.736 258.435L323.938 227.637C324.065 226.713 323.418 225.861 322.493 225.735L315.231 224.742C310.585 224.108 306.254 226.95 304.858 231.261L288.463 229.025C287.302 228.866 286.143 228.82 284.998 228.876V221.408C284.998 217.851 283.613 214.511 281.102 212.004C278.597 209.494 275.258 208.11 271.7 208.11C268.149 208.11 264.81 209.494 262.298 212.006C259.787 214.519 258.405 217.858 258.408 221.408V230.427H251.874L245.173 223.725C245.663 221.73 245.928 219.646 245.928 217.501C245.928 203.099 234.211 191.381 219.808 191.381C206.684 191.381 195.794 201.112 193.963 213.736L181.931 225.769C179.688 228.011 178.453 230.993 178.453 234.166C178.453 237.337 179.688 240.32 181.931 242.563L209.215 269.846V272.673C209.215 282.918 217.549 291.252 227.793 291.252H230.446L231.78 292.585C238.295 299.1 246.849 302.356 255.406 302.356C263.961 302.356 272.519 299.098 279.032 292.585L295.738 275.939L313.59 293.806C313.92 294.136 314.352 294.301 314.785 294.301C315.217 294.301 315.649 294.136 315.979 293.806L337.958 271.827C338.618 271.168 338.618 270.098 337.958 269.438ZM297.428 272.851V260.063C300.08 259.704 302.639 258.51 304.672 256.476C305.428 255.72 306.073 254.884 306.609 253.98L313.913 261.283L299.887 275.31L297.428 272.851ZM277.759 256.311L270.403 248.955L270.892 245.38C270.894 245.364 270.897 245.349 270.9 245.334C271.886 245.817 272.934 246.172 274.035 246.388C274.859 246.55 275.685 246.63 276.505 246.63C278.478 246.63 280.412 246.16 282.183 245.263L285.235 249.279C284.303 249.922 283.419 250.65 282.602 251.468L277.759 256.311ZM285.611 232.235C285.829 233.4 285.824 234.579 285.594 235.75C285.115 238.185 283.717 240.287 281.657 241.671C279.597 243.054 277.123 243.553 274.687 243.074C273.643 242.868 272.665 242.496 271.768 241.968C272.769 239.356 274.474 237.065 276.756 235.33C279.344 233.363 282.422 232.299 285.611 232.235ZM295.738 246.026C293.103 246.026 290.553 246.576 288.213 247.614L284.976 243.355C286.999 241.534 288.375 239.12 288.909 236.402C289.164 235.109 289.212 233.808 289.065 232.517L298.409 233.791L296.739 246.055C296.407 246.037 296.074 246.026 295.738 246.026ZM295.738 249.405C298.696 249.405 301.524 250.248 303.952 251.814C303.515 252.649 302.959 253.411 302.283 254.087C298.661 257.708 292.768 257.709 289.146 254.087C288.473 253.414 287.921 252.659 287.489 251.837C289.925 250.256 292.766 249.405 295.738 249.405ZM316.617 256.304L313.945 255.939L317.694 228.489L320.363 228.853L316.617 256.304ZM305.927 234.816C306.856 234.938 307.703 234.295 307.829 233.371C308.269 230.146 311.142 227.846 314.343 228.053L310.872 253.465L308.875 251.468C306.415 249.007 303.385 247.325 300.083 246.538L301.757 234.247L305.927 234.816ZM274.712 232.641C272.533 234.297 270.785 236.368 269.539 238.715L261.787 230.963C261.787 230.963 261.791 221.143 261.797 221.012H281.61C281.615 221.144 281.619 229.361 281.619 229.361C279.146 229.953 276.798 231.055 274.712 232.641ZM271.701 211.49C274.354 211.49 276.844 212.52 278.713 214.394C279.657 215.335 280.387 216.435 280.879 217.633H262.526C263.018 216.436 263.746 215.337 264.689 214.395C266.561 212.521 269.052 211.49 271.701 211.49ZM259.851 233.805C259.851 233.805 268.08 242.017 268.163 242.074C267.887 242.998 267.678 243.949 267.545 244.923L267.404 245.956L255.253 233.806H259.851V233.805ZM275.37 258.7L270.169 263.901L240.14 233.873C241.728 231.907 243.034 229.706 244.002 227.332L275.37 258.7ZM242.55 217.501C242.55 218.287 242.51 219.065 242.432 219.831C236.891 225.215 229.407 227.491 222.955 225.818C222.831 223.7 221.957 221.724 220.444 220.212C218.809 218.576 216.635 217.676 214.323 217.676C213.953 217.676 213.587 217.708 213.225 217.753C210.044 210.854 212.135 201.859 218.549 195.445C218.787 195.208 219.019 194.987 219.249 194.775C219.436 194.77 219.622 194.76 219.81 194.76C232.348 194.76 242.55 204.962 242.55 217.501ZM214.323 221.055C215.733 221.055 217.058 221.604 218.055 222.6C219.052 223.597 219.601 224.923 219.601 226.333C219.601 227.742 219.052 229.068 218.055 230.064C217.058 231.061 215.733 231.61 214.323 231.61C212.914 231.61 211.588 231.061 210.591 230.064C209.595 229.068 209.045 227.742 209.045 226.333C209.045 224.923 209.595 223.597 210.591 222.6C211.588 221.604 212.914 221.055 214.323 221.055ZM213.969 195.524C208.401 202.578 206.838 211.589 210.005 218.837C209.356 219.212 208.747 219.667 208.202 220.212C206.567 221.847 205.667 224.021 205.667 226.333C205.667 228.645 206.568 230.819 208.202 232.453C209.837 234.089 212.011 234.989 214.323 234.989C216.636 234.989 218.809 234.089 220.444 232.454C221.381 231.517 222.067 230.399 222.491 229.183C224.042 229.552 225.637 229.735 227.248 229.735C232.021 229.735 236.926 228.15 241.208 225.194C238.048 233.959 229.65 240.243 219.81 240.243C207.27 240.243 197.068 230.042 197.068 217.502C197.068 206.981 204.251 198.109 213.969 195.524ZM209.215 248.394L186.649 225.829L193.721 218.758C194.201 228.851 200.44 237.457 209.214 241.368L209.215 248.394ZM191.247 247.1L197.195 241.152L199.859 243.816L193.911 249.764L191.247 247.1ZM181.832 234.166C181.832 231.924 182.697 229.818 184.264 228.22L194.806 238.763L188.858 244.711L184.321 240.174C182.716 238.569 181.832 236.435 181.832 234.166ZM196.3 252.153L202.248 246.205L209.215 253.172V265.068L196.3 252.153ZM212.827 275.306C216.086 273.817 219.948 274.472 222.541 277.064C225.277 279.8 225.822 284.071 223.994 287.392C218.277 285.915 213.858 281.186 212.827 275.306ZM227.518 287.867C229.106 284.126 228.7 279.84 226.399 276.457L234.818 268.037H244.828C244.961 268.037 245.092 268.042 245.224 268.048V287.864C245.093 287.868 227.61 287.868 227.518 287.867ZM254.746 277.956C254.746 282.089 252.205 285.637 248.603 287.125V268.785C252.204 270.273 254.746 273.823 254.746 277.956ZM276.643 290.197C265.296 301.543 247.054 301.895 235.28 291.252H244.828C252.16 291.252 258.125 285.287 258.125 277.956C258.125 270.624 252.16 264.659 244.828 264.659H235.808V245.924C235.808 244.991 235.052 244.235 234.119 244.235C233.186 244.235 232.429 244.991 232.429 245.924V265.649L224.131 273.947C220.889 271.23 216.522 270.449 212.594 271.771V242.6C214.887 243.26 217.306 243.621 219.809 243.621C226.803 243.621 233.158 240.853 237.851 236.362L267.779 266.29L263.687 270.383C263.026 271.042 263.026 272.112 263.687 272.771C264.346 273.432 265.416 273.432 266.075 272.771L284.836 254.011C285.368 254.9 286.007 255.726 286.756 256.476C288.802 258.522 291.38 259.717 294.049 260.068V272.851L276.643 290.197ZM302.276 277.698L316.302 263.672L319.276 266.646C319.936 267.306 321.006 267.306 321.665 266.646C323.966 264.346 327.644 264.252 330.065 266.354L310.49 285.928L302.276 277.698ZM314.785 290.223L312.879 288.317L332.469 268.727L334.375 270.633L314.785 290.223Z" fill="black"/>
</g>
</g>
<defs>
<filter id="filter0_d_3_59" x="0" y="0" width="508" height="508" filterUnits="userSpaceOnUse" color-interpolation-filters="sRGB">
<feFlood flood-opacity="0" result="BackgroundImageFix"/>
<feColorMatrix in="SourceAlpha" type="matrix" values="0 0 0 0 0 0 0 0 0 0 0 0 0 0 0 0 0 0 127 0" result="hardAlpha"/>
<feOffset dy="4"/>
<feGaussianBlur stdDeviation="2"/>
<feComposite in2="hardAlpha" operator="out"/>
<feColorMatrix type="matrix" values="0 0 0 0 0 0 0 0 0 0 0 0 0 0 0 0 0 0 0.25 0"/>
<feBlend mode="normal" in2="BackgroundImageFix" result="effect1_dropShadow_3_59"/>
<feBlend mode="normal" in="SourceGraphic" in2="effect1_dropShadow_3_59" result="shape"/>
</filter>
<clipPath id="clip0_3_59">
<rect width="160" height="160" fill="white" transform="translate(175 158)"/>
</clipPath>
</defs>
</svg>
