<svg width="508" height="508" viewBox="0 0 508 508" fill="none" xmlns="http://www.w3.org/2000/svg">
<g filter="url(#filter0_d_4_2)">
<rect width="500" height="500" transform="translate(4)" fill="white"/>
<path d="M187 298.656C195.643 287.307 206.78 278.098 219.551 271.742C232.321 265.386 246.383 262.053 260.648 262.001C274.913 261.948 288.999 265.178 301.816 271.441C314.633 277.703 325.837 286.83 334.563 298.115" stroke="#404040" stroke-width="7" stroke-linecap="round"/>
<ellipse cx="260.5" cy="238" rx="30.5" ry="24" fill="white"/>
<path d="M245.686 193.777C245.83 194.223 245.947 194.682 246.035 195.14C246.148 195.732 246.666 196.144 247.247 196.144C247.324 196.144 247.402 196.137 247.481 196.121C248.151 195.993 248.59 195.346 248.462 194.676C248.355 194.118 248.212 193.561 248.038 193.019C247.828 192.369 247.133 192.012 246.483 192.222C245.833 192.431 245.476 193.128 245.686 193.777Z" fill="black"/>
<path d="M233.098 184.244C233.097 184.926 233.649 185.48 234.332 185.482C237.899 185.488 241.392 187.195 243.677 190.05C243.921 190.354 244.28 190.513 244.643 190.513C244.913 190.513 245.186 190.424 245.414 190.242C245.946 189.816 246.032 189.038 245.606 188.506C242.858 185.072 238.644 183.018 234.336 183.011C234.335 183.011 234.334 183.011 234.334 183.011C233.652 183.011 233.1 183.562 233.098 184.244Z" fill="black"/>
<path d="M238.452 225.915H232.902C232.219 225.915 231.666 226.468 231.666 227.15C231.666 227.832 232.219 228.385 232.902 228.385H238.452C239.134 228.385 239.688 227.832 239.688 227.15C239.688 226.468 239.134 225.915 238.452 225.915Z" fill="black"/>
<path d="M320.638 235.079L316.85 231.291C314.425 228.866 310.647 228.602 307.928 230.494L305.452 228.019C305.825 228.069 306.076 228.101 306.089 228.101C306.357 228.101 306.62 228.014 306.836 227.85C307.097 227.652 307.268 227.358 307.313 227.033L310.386 204.512C310.478 203.836 310.006 203.214 309.33 203.121L304.019 202.395C300.622 201.931 297.454 204.009 296.434 207.162L284.445 205.527C283.596 205.411 282.749 205.377 281.911 205.418V199.957C281.911 197.356 280.898 194.913 279.062 193.081C277.23 191.245 274.789 190.233 272.187 190.233C269.59 190.233 267.148 191.245 265.312 193.082C263.476 194.919 262.465 197.361 262.467 199.957V206.552H257.689L252.789 201.652C253.147 200.192 253.341 198.669 253.341 197.1C253.341 186.568 244.773 178 234.241 178C224.644 178 216.681 185.116 215.342 194.347L206.543 203.146C204.903 204.786 204 206.966 204 209.286C204 211.605 204.903 213.786 206.544 215.426L226.495 235.377V237.445C226.495 244.936 232.589 251.031 240.08 251.031H242.02L242.996 252.006C247.759 256.769 254.014 259.15 260.272 259.15C266.528 259.15 272.786 256.768 277.548 252.006L289.765 239.833L302.819 252.898C303.06 253.14 303.377 253.26 303.692 253.26C304.008 253.26 304.325 253.14 304.566 252.898L320.638 236.826C321.121 236.344 321.121 235.561 320.638 235.079ZM291 237.575V228.223C292.94 227.961 294.811 227.088 296.297 225.601C296.85 225.048 297.322 224.436 297.714 223.776L303.055 229.116L292.798 239.373L291 237.575ZM276.617 225.48L271.239 220.101L271.596 217.486C271.598 217.475 271.6 217.464 271.602 217.453C272.323 217.806 273.089 218.066 273.895 218.224C274.497 218.342 275.101 218.401 275.701 218.401C277.143 218.401 278.558 218.057 279.852 217.401L282.085 220.338C281.403 220.808 280.757 221.341 280.159 221.939L276.617 225.48ZM282.359 207.874C282.519 208.726 282.515 209.588 282.347 210.445C281.997 212.225 280.975 213.762 279.468 214.774C277.962 215.786 276.152 216.151 274.371 215.8C273.608 215.65 272.892 215.378 272.237 214.991C272.968 213.081 274.216 211.407 275.884 210.138C277.777 208.699 280.027 207.921 282.359 207.874ZM289.765 217.959C287.838 217.959 285.973 218.361 284.262 219.12L281.895 216.006C283.374 214.674 284.38 212.909 284.771 210.921C284.957 209.976 284.993 209.025 284.885 208.08L291.718 209.012L290.497 217.98C290.254 217.967 290.01 217.959 289.765 217.959ZM289.765 220.43C291.928 220.43 293.995 221.046 295.771 222.191C295.452 222.802 295.045 223.359 294.551 223.853C291.902 226.502 287.593 226.502 284.944 223.853C284.452 223.362 284.048 222.81 283.732 222.208C285.514 221.052 287.591 220.43 289.765 220.43ZM305.033 225.475L303.079 225.208L305.82 205.135L307.772 205.402L305.033 225.475ZM297.216 209.762C297.895 209.851 298.514 209.381 298.606 208.705C298.928 206.347 301.029 204.665 303.37 204.816L300.832 223.399L299.371 221.938C297.572 220.139 295.356 218.909 292.942 218.333L294.166 209.346L297.216 209.762ZM274.389 208.171C272.796 209.382 271.518 210.896 270.607 212.613L264.938 206.945C264.938 206.945 264.941 199.763 264.945 199.667H279.433C279.437 199.764 279.44 205.773 279.44 205.773C277.632 206.206 275.915 207.011 274.389 208.171ZM272.187 192.704C274.128 192.704 275.948 193.457 277.315 194.828C278.005 195.516 278.539 196.321 278.899 197.196H265.479C265.838 196.322 266.371 195.518 267.06 194.829C268.429 193.459 270.25 192.704 272.187 192.704ZM263.522 209.023C263.522 209.023 269.54 215.027 269.601 215.069C269.399 215.745 269.245 216.44 269.148 217.152L269.045 217.908L260.16 209.023H263.522V209.023ZM274.871 227.227L271.067 231.03L249.109 209.072C250.269 207.634 251.225 206.025 251.933 204.289L274.871 227.227ZM250.871 197.1C250.871 197.675 250.842 198.243 250.784 198.804C246.732 202.741 241.26 204.405 236.542 203.182C236.451 201.633 235.812 200.188 234.706 199.082C233.51 197.886 231.921 197.228 230.23 197.228C229.959 197.228 229.692 197.251 229.427 197.285C227.101 192.239 228.63 185.662 233.32 180.972C233.494 180.798 233.664 180.637 233.832 180.481C233.969 180.478 234.105 180.471 234.242 180.471C243.411 180.471 250.871 187.931 250.871 197.1ZM230.23 199.699C231.261 199.699 232.23 200.1 232.959 200.829C233.688 201.558 234.089 202.527 234.089 203.558C234.089 204.589 233.688 205.558 232.959 206.287C232.23 207.016 231.261 207.417 230.23 207.417C229.199 207.417 228.23 207.016 227.501 206.287C226.772 205.558 226.371 204.589 226.371 203.558C226.371 202.527 226.772 201.558 227.501 200.829C228.23 200.1 229.199 199.699 230.23 199.699ZM229.971 181.029C225.9 186.187 224.756 192.777 227.072 198.077C226.598 198.352 226.152 198.684 225.754 199.083C224.558 200.278 223.9 201.868 223.9 203.558C223.9 205.249 224.559 206.839 225.754 208.034C226.95 209.23 228.539 209.888 230.23 209.888C231.921 209.888 233.51 209.23 234.706 208.034C235.391 207.349 235.893 206.532 236.203 205.643C237.337 205.912 238.503 206.046 239.681 206.046C243.172 206.046 246.759 204.887 249.89 202.726C247.579 209.135 241.438 213.73 234.242 213.73C225.072 213.73 217.612 206.27 217.612 197.1C217.612 189.407 222.864 182.919 229.971 181.029ZM226.495 219.691L209.994 203.19L215.164 198.019C215.515 205.4 220.078 211.693 226.494 214.553L226.495 219.691ZM213.356 218.744L217.705 214.395L219.653 216.343L215.304 220.693L213.356 218.744ZM206.471 209.286C206.471 207.647 207.103 206.107 208.249 204.939L215.958 212.648L211.609 216.998L208.291 213.68C207.117 212.506 206.471 210.945 206.471 209.286ZM217.05 222.439L221.4 218.09L226.495 223.184V231.883L217.05 222.439ZM229.136 239.37C231.519 238.281 234.343 238.76 236.239 240.656C238.24 242.657 238.638 245.78 237.302 248.208C233.121 247.128 229.89 243.67 229.136 239.37ZM239.879 248.555C241.04 245.82 240.743 242.686 239.061 240.211L245.217 234.055H252.537C252.634 234.055 252.73 234.059 252.826 234.062V248.553C252.73 248.556 239.946 248.556 239.879 248.555ZM259.79 241.308C259.79 244.33 257.931 246.925 255.297 248.013V234.602C257.931 235.69 259.79 238.285 259.79 241.308ZM275.801 250.259C267.504 258.556 254.164 258.813 245.555 251.031H252.537C257.898 251.031 262.26 246.669 262.26 241.308C262.26 235.946 257.898 231.584 252.537 231.584H245.941V217.884C245.941 217.202 245.388 216.649 244.706 216.649C244.023 216.649 243.47 217.202 243.47 217.884V232.308L237.402 238.376C235.031 236.39 231.838 235.818 228.965 236.785V215.454C230.642 215.936 232.411 216.201 234.242 216.201C239.356 216.201 244.003 214.176 247.435 210.892L269.32 232.777L266.327 235.77C265.844 236.252 265.844 237.035 266.327 237.517C266.809 237.999 267.592 237.999 268.074 237.517L281.793 223.798C282.182 224.448 282.649 225.052 283.197 225.6C284.693 227.097 286.578 227.971 288.53 228.227V237.575L275.801 250.259ZM294.545 241.119L304.802 230.863L306.977 233.038C307.46 233.52 308.242 233.52 308.724 233.038C310.407 231.355 313.096 231.287 314.866 232.824L300.552 247.137L294.545 241.119ZM303.692 250.278L302.299 248.884L316.624 234.559L318.018 235.953L303.692 250.278Z" fill="black"/>
</g>
<defs>
<filter id="filter0_d_4_2" x="0" y="0" width="508" height="508" filterUnits="userSpaceOnUse" color-interpolation-filters="sRGB">
<feFlood flood-opacity="0" result="BackgroundImageFix"/>
<feColorMatrix in="SourceAlpha" type="matrix" values="0 0 0 0 0 0 0 0 0 0 0 0 0 0 0 0 0 0 127 0" result="hardAlpha"/>
<feOffset dy="4"/>
<feGaussianBlur stdDeviation="2"/>
<feComposite in2="hardAlpha" operator="out"/>
<feColorMatrix type="matrix" values="0 0 0 0 0 0 0 0 0 0 0 0 0 0 0 0 0 0 0.25 0"/>
<feBlend mode="normal" in2="BackgroundImageFix" result="effect1_dropShadow_4_2"/>
<feBlend mode="normal" in="SourceGraphic" in2="effect1_dropShadow_4_2" result="shape"/>
</filter>
</defs>
</svg>
